<?xml version="1.0" encoding="UTF-8"?>
<svg id="Layer_1" data-name="Layer 1" xmlns="http://www.w3.org/2000/svg" viewBox="0 0 16 16">
  <defs>
    <style>
      .cls-1 {
        fill: #fff;
      }
    </style>
  </defs>
  <path class="cls-1" d="M8,16c2.21,0,4-1.79,4-4,2.21,0,4-1.79,4-4s-1.79-4-4-4c0-2.21-1.79-4-4-4S4,1.79,4,4C1.79,4,0,5.79,0,8s1.79,4,4,4c0,2.21,1.79,4,4,4Zm3-12c0,.07-.01,.16-.03,.25-.54,.24-1.09,.64-1.6,1.08-.42-.22-.89-.33-1.37-.33-.49,0-.96,.12-1.37,.33-.51-.45-1.05-.84-1.6-1.08-.02-.08-.03-.16-.03-.25,0-1.66,1.34-3,3-3s3,1.34,3,3Zm-.81,6.05c.52-.56,.81-1.29,.81-2.05,0-.76-.29-1.5-.81-2.05,.22-.18,.43-.35,.65-.49,.51-.33,.9-.46,1.16-.46,1.66,0,3,1.34,3,3s-1.34,3-3,3c-.27,0-.66-.13-1.16-.46-.23-.15-.44-.31-.65-.49Zm-3.56,.62c.86,.44,1.88,.44,2.74,0,.51,.45,1.05,.84,1.6,1.08,.02,.09,.03,.17,.03,.25,0,1.66-1.34,3-3,3s-3-1.34-3-3c0-.07,.01-.15,.03-.25,.54-.24,1.09-.64,1.6-1.08Zm-.82-4.72c-.52,.56-.81,1.29-.81,2.05,0,.79,.31,1.52,.81,2.05-.21,.17-.42,.34-.65,.49-.51,.33-.9,.46-1.16,.46-1.66,0-3-1.34-3-3s1.34-3,3-3c.27,0,.66,.13,1.16,.46,.22,.14,.43,.31,.65,.49Zm2.19,3.05c-.55,0-1-.45-1-1s.45-1,1-1,1,.45,1,1-.45,1-1,1Z"/>
</svg>